<svg xmlns="http://www.w3.org/2000/svg" viewBox="0 0 992.36 560"><defs><style>.cls-1{fill:none;stroke:#ff7800;stroke-miterlimit:10;}.cls-2{fill:#54286a;}.cls-3{fill:#fff;}.cls-4{fill:#ff7800;}</style></defs><g id="Layer_1" data-name="Layer 1"><rect class="cls-1" x="114.27" y="196.24" width="287.11" height="223.13"/><rect class="cls-1" x="67.6" y="123.92" width="620.17" height="340.39"/><rect class="cls-1" x="17.91" y="52.89" width="956.54" height="457.73"/><rect class="cls-2" x="157.82" y="237.98" width="200" height="60"/><path class="cls-3" d="M242,260.19v8.19c0,4.08-1.94,5.78-5,5.78s-5-1.7-5-5.76v-8.21h1.72v8.21c0,3,1.16,4.2,3.28,4.2s3.28-1.18,3.28-4.2v-8.21Z"/><path class="cls-3" d="M247.83,274h-1.72V260.19h1.72Z"/><path class="cls-3" d="M266.33,274l-4.64-6.88-2.54,3.12V274h-1.72V260.19h1.72v7.43l6-7.43h2.22l-4.54,5.55,5.56,8.26Z"/><path class="cls-3" d="M272.61,274h-1.72V260.19h1.72Z"/><path class="cls-3" d="M285.23,260.19v1.57H281V274h-1.72V261.76h-4.2v-1.57Z"/><rect class="cls-2" x="444.02" y="278.49" width="200" height="60"/><path class="cls-3" d="M529.31,305c-.48-2.16-1.58-2.9-3.28-2.9-2.12,0-3.28,1.32-3.28,4.74v1.52c0,3.42,1.16,4.74,3.28,4.74,1.8,0,2.82-.88,3.28-2.9H531c-.44,3.1-2.32,4.46-4.94,4.46-3.06,0-5-1.84-5-6.3v-1.52c0-4.46,1.94-6.3,5-6.3,2.72,0,4.52,1.44,5,4.46Z"/><path class="cls-3" d="M538.09,314.67c-3.06,0-5-1.84-5-6.3v-1.52c0-4.46,1.94-6.3,5-6.3s5,1.84,5,6.3v1.52C543.09,312.83,541.15,314.67,538.09,314.67Zm-3.28-6.3c0,3.42,1.16,4.74,3.28,4.74s3.28-1.32,3.28-4.74v-1.52c0-3.42-1.16-4.74-3.28-4.74s-3.28,1.32-3.28,4.74Z"/><path class="cls-3" d="M546.29,314.51v-13.8h4.4c3.06,0,5,1.72,5,6.18v1.44c0,4.46-1.94,6.18-5,6.18Zm7.68-6.18v-1.44c0-3.42-1.16-4.62-3.28-4.62H548V313h2.68C552.81,313,554,311.75,554,308.33Z"/><path class="cls-3" d="M567.21,300.71v1.56h-6.6v4.32h6v1.56h-6V313h6.6v1.56h-8.32v-13.8Z"/><rect class="cls-2" x="730.83" y="278.49" width="200" height="60"/><path class="cls-3" d="M780.18,300.71c3.22,0,4.76,1.22,4.76,3.52a3.13,3.13,0,0,1-2.28,3.08,3.06,3.06,0,0,1,2.72,3.24c0,2-1.22,4-4.76,4H776v-13.8Zm-2.5,5.86h2.8c1.94,0,2.74-1,2.74-2.34s-.62-2-3-2h-2.5Zm0,6.38h2.94c2.08,0,3-.9,3-2.4,0-1.66-1.08-2.42-3.36-2.42h-2.62Z"/><path class="cls-3" d="M796.24,314.51l-2.88-5.82H790.1v5.82h-1.72v-13.8h4.4c3.18,0,5,1.32,5,4a3.51,3.51,0,0,1-2.72,3.68l3.08,6.12Zm-3.46-7.38c2.34,0,3.3-.72,3.3-2.42s-1-2.44-3.3-2.44H790.1v4.86Z"/><path class="cls-3" d="M799.46,314.51l4.8-13.8h1.6l4.8,13.8h-1.82l-1.06-3.16h-5.44l-1.06,3.16Zm3.42-4.72h4.36l-2.18-6.48Z"/><path class="cls-3" d="M822.42,300.71v13.8h-1.68l-6-10.44v10.44h-1.72v-13.8h1.64l6,10.54V300.71Z"/><path class="cls-3" d="M826.32,314.51v-13.8h4.4c3.06,0,5,1.72,5,6.18v1.44c0,4.46-1.94,6.18-5,6.18Zm7.68-6.18v-1.44c0-3.42-1.16-4.62-3.28-4.62H828V313h2.68C832.84,313,834,311.75,834,308.33Z"/><path class="cls-3" d="M843.14,300.71c3.22,0,4.76,1.22,4.76,3.52a3.13,3.13,0,0,1-2.28,3.08,3.06,3.06,0,0,1,2.72,3.24c0,2-1.22,4-4.76,4h-4.66v-13.8Zm-2.5,5.86h2.8c1.94,0,2.74-1,2.74-2.34s-.62-2-3-2h-2.5Zm0,6.38h2.94c2.08,0,3-.9,3-2.4,0-1.66-1.08-2.42-3.36-2.42h-2.62Z"/><path class="cls-3" d="M855.64,314.67c-3.06,0-5-1.84-5-6.3v-1.52c0-4.46,1.94-6.3,5-6.3s5,1.84,5,6.3v1.52C860.64,312.83,858.7,314.67,855.64,314.67Zm-3.28-6.3c0,3.42,1.16,4.74,3.28,4.74s3.28-1.32,3.28-4.74v-1.52c0-3.42-1.16-4.74-3.28-4.74s-3.28,1.32-3.28,4.74Z"/><path class="cls-3" d="M868.14,314.67c-3.06,0-5-1.84-5-6.3v-1.52c0-4.46,1.94-6.3,5-6.3s5,1.84,5,6.3v1.52C873.14,312.83,871.2,314.67,868.14,314.67Zm-3.28-6.3c0,3.42,1.16,4.74,3.28,4.74s3.28-1.32,3.28-4.74v-1.52c0-3.42-1.16-4.74-3.28-4.74s-3.28,1.32-3.28,4.74Z"/><path class="cls-3" d="M885.24,314.51l-4.64-6.88-2.54,3.12v3.76h-1.72v-13.8h1.72v7.42l6-7.42h2.22l-4.54,5.54,5.56,8.26Z"/><rect class="cls-2" x="157.82" y="319.01" width="200" height="60"/><path class="cls-3" d="M196.2,329.22c3.22,0,4.76,1.22,4.76,3.52a3.15,3.15,0,0,1-2.28,3.09,3.05,3.05,0,0,1,2.72,3.24c0,2-1.22,4-4.76,4H192V329.22Zm-2.5,5.87h2.8c1.94,0,2.74-1,2.74-2.35s-.62-2-3-2h-2.5Zm0,6.38h2.94c2.08,0,3-.9,3-2.4,0-1.66-1.08-2.43-3.36-2.43H193.7Z"/><path class="cls-3" d="M212.72,329.22v1.56h-6.6v4.32h6v1.57h-6v4.8h6.6V343H204.4V329.22Z"/><path class="cls-3" d="M217.44,335.1h5.92v-5.88h1.72V343h-1.72v-6.36h-5.92V343h-1.72V329.22h1.72Z"/><path class="cls-3" d="M227.48,343l4.8-13.81h1.6l4.8,13.81h-1.82l-1.06-3.16h-5.44L229.3,343Zm3.42-4.72h4.36l-2.18-6.49Z"/><path class="cls-3" d="M240.88,329.22l3.88,11,3.94-11h1.9l-5,13.81H244l-5-13.81Z"/><path class="cls-3" d="M254.92,343H253.2V329.22h1.72Z"/><path class="cls-3" d="M263.32,343.19c-3.06,0-5-1.84-5-6.3v-1.53c0-4.46,1.94-6.3,5-6.3s5,1.84,5,6.3v1.53C268.32,341.35,266.38,343.19,263.32,343.19Zm-3.28-6.3c0,3.42,1.16,4.74,3.28,4.74s3.28-1.32,3.28-4.74v-1.53c0-3.42-1.16-4.74-3.28-4.74s-3.28,1.32-3.28,4.74Z"/><path class="cls-3" d="M279.38,343l-2.88-5.82h-3.26V343h-1.72V329.22h4.4c3.18,0,5,1.32,5,4a3.52,3.52,0,0,1-2.72,3.69L281.3,343Zm-3.46-7.39c2.34,0,3.3-.71,3.3-2.42s-1-2.44-3.3-2.44h-2.68v4.86Z"/><path class="cls-3" d="M288.1,343l4.8-13.81h1.6L299.3,343h-1.82l-1.06-3.16H291L289.92,343Zm3.42-4.72h4.36l-2.18-6.49Z"/><path class="cls-3" d="M311.06,329.22V343h-1.68l-6-10.45V343H301.7V329.22h1.64l6,10.55V329.22Z"/><path class="cls-3" d="M315,343V329.22h4.4c3.06,0,5,1.72,5,6.18v1.45c0,4.46-1.94,6.18-5,6.18Zm7.68-6.18V335.4c0-3.42-1.16-4.62-3.28-4.62h-2.68v10.69h2.68C321.48,341.47,322.64,340.27,322.64,336.85Z"/><path class="cls-3" d="M205.12,356.28a3.66,3.66,0,0,0-3.28-1.66c-1.6,0-2.68.72-2.68,2.16,0,1.65,1.24,2.2,3.26,2.57,2.66.45,4.28,1.41,4.28,4,0,1.8-1.2,3.86-4.64,3.86a5.57,5.57,0,0,1-4.92-2.26l1.42-1a4,4,0,0,0,3.5,1.68c2.26,0,2.92-1,2.92-2.22s-.66-2.18-3.26-2.58-4.28-1.65-4.28-4.05c0-2,1.3-3.72,4.46-3.72a4.88,4.88,0,0,1,4.56,2.26Z"/><path class="cls-3" d="M217.44,357.52c-.48-2.16-1.58-2.9-3.28-2.9-2.12,0-3.28,1.32-3.28,4.74v1.53c0,3.42,1.16,4.74,3.28,4.74,1.8,0,2.82-.88,3.28-2.9h1.66c-.44,3.1-2.32,4.46-4.94,4.46-3.06,0-5-1.84-5-6.3v-1.53c0-4.46,1.94-6.3,5-6.3,2.72,0,4.52,1.44,5,4.46Z"/><path class="cls-3" d="M220.42,367l4.8-13.81h1.6l4.8,13.81H229.8l-1.06-3.16H223.3L222.24,367Zm3.42-4.72h4.36L226,355.82Z"/><path class="cls-3" d="M235.74,365.47h6.6V367H234V353.22h1.72Z"/><path class="cls-3" d="M252.86,353.22v1.56h-6.6v4.32h6v1.57h-6v4.8h6.6V367h-8.32V353.22Z"/><path class="cls-3" d="M269.22,367l-2.88-5.82h-3.26V367h-1.72V353.22h4.4c3.18,0,5,1.32,5,4a3.52,3.52,0,0,1-2.72,3.69l3.08,6.12Zm-3.46-7.39c2.34,0,3.3-.71,3.3-2.42s-1-2.44-3.3-2.44h-2.68v4.86Z"/><path class="cls-3" d="M283.94,353.22v8.19c0,4.08-1.94,5.78-5,5.78s-5-1.7-5-5.76v-8.21h1.72v8.21c0,3,1.16,4.2,3.28,4.2s3.28-1.18,3.28-4.2v-8.21Z"/><path class="cls-3" d="M289.56,365.47h6.6V367h-8.32V353.22h1.72Z"/><path class="cls-3" d="M306.68,353.22v1.56h-6.6v4.32h6v1.57h-6v4.8h6.6V367h-8.32V353.22Z"/><path class="cls-3" d="M316.86,356.28a3.66,3.66,0,0,0-3.28-1.66c-1.6,0-2.68.72-2.68,2.16,0,1.65,1.24,2.2,3.26,2.57,2.66.45,4.28,1.41,4.28,4,0,1.8-1.2,3.86-4.64,3.86a5.57,5.57,0,0,1-4.92-2.26l1.42-1a4,4,0,0,0,3.5,1.68c2.26,0,2.92-1,2.92-2.22s-.66-2.18-3.26-2.58-4.28-1.65-4.28-4.05c0-2,1.3-3.72,4.46-3.72a4.88,4.88,0,0,1,4.56,2.26Z"/><rect class="cls-3" x="157.82" y="162.95" width="200" height="60"/><path class="cls-4" d="M208.05,189.59a3.66,3.66,0,0,0-3.28-1.66c-1.6,0-2.68.72-2.68,2.16,0,1.64,1.24,2.2,3.26,2.56,2.66.46,4.28,1.42,4.28,4,0,1.8-1.2,3.86-4.64,3.86a5.57,5.57,0,0,1-4.92-2.26l1.42-1a4,4,0,0,0,3.5,1.68c2.26,0,2.92-1,2.92-2.22s-.66-2.18-3.26-2.58-4.28-1.65-4.28-4c0-2,1.3-3.72,4.46-3.72a4.88,4.88,0,0,1,4.56,2.26Z"/><path class="cls-4" d="M221,186.53v1.56h-4.2v12.25h-1.72V188.09h-4.2v-1.56Z"/><path class="cls-4" d="M224,186.53l3.14,6,3.14-6h2l-4.3,7.89v5.92h-1.72v-5.92l-4.3-7.89Z"/><path class="cls-4" d="M236.63,198.78h6.6v1.56h-8.32V186.53h1.72Z"/><path class="cls-4" d="M253.75,186.53v1.56h-6.6v4.32h6V194h-6v4.81h6.6v1.56h-8.32V186.53Z"/><path class="cls-4" d="M271.63,193.39v.8c0,4.47-2,6.31-5.08,6.31s-5-1.84-5-6.31v-1.52c0-4.46,1.94-6.3,5-6.3,2.68,0,4.52,1.42,5,4.46h-1.68c-.44-2.06-1.52-2.9-3.28-2.9-2.12,0-3.28,1.32-3.28,4.74v1.52c0,3.43,1.16,4.75,3.28,4.75,1.94,0,3.16-1.12,3.34-4h-3.28v-1.57Z"/><path class="cls-4" d="M284.83,186.53v8.19c0,4.08-1.94,5.78-5,5.78s-5-1.7-5-5.77v-8.2h1.72v8.2c0,3,1.16,4.21,3.28,4.21s3.28-1.18,3.28-4.21v-8.2Z"/><path class="cls-4" d="M290.65,200.34h-1.72V186.53h1.72Z"/><path class="cls-4" d="M294.75,200.34V186.53h4.4c3.06,0,5,1.72,5,6.18v1.44c0,4.47-1.94,6.19-5,6.19Zm7.68-6.19v-1.44c0-3.42-1.16-4.62-3.28-4.62h-2.68v10.69h2.68C301.27,198.78,302.43,197.58,302.43,194.15Z"/><path class="cls-4" d="M315.67,186.53v1.56h-6.6v4.32h6V194h-6v4.81h6.6v1.56h-8.32V186.53Z"/><rect class="cls-3" x="157.82" y="93.92" width="200" height="60"/><path class="cls-4" d="M179.08,126.05v5.26h-1.72v-13.8h4.4c3.18,0,5,1.6,5,4.28s-1.82,4.26-5,4.26Zm2.68-1.56c2.34,0,3.3-1,3.3-2.7s-1-2.72-3.3-2.72h-2.68v5.42Z"/><path class="cls-4" d="M187.2,131.31l4.8-13.8h1.6l4.8,13.8h-1.82l-1.06-3.16h-5.44L189,131.31Zm3.42-4.72H195l-2.18-6.48Z"/><path class="cls-4" d="M208.72,117.51v1.56h-4.2v12.24H202.8V119.07h-4.2v-1.56Z"/><path class="cls-4" d="M219.66,117.51v1.56h-4.2v12.24h-1.72V119.07h-4.2v-1.56Z"/><path class="cls-4" d="M230.28,117.51v1.56h-6.6v4.32h6V125h-6v4.8h6.6v1.56H222v-13.8Z"/><path class="cls-4" d="M241.14,131.31l-2.88-5.82H235v5.82h-1.72v-13.8h4.4c3.18,0,5,1.32,5,4a3.51,3.51,0,0,1-2.72,3.68l3.08,6.12Zm-3.46-7.38c2.34,0,3.3-.72,3.3-2.42s-1-2.44-3.3-2.44H235v4.86Z"/><path class="cls-4" d="M255.22,117.51v13.8h-1.68l-6-10.44v10.44h-1.72v-13.8h1.64l6,10.54V117.51Z"/><path class="cls-4" d="M266.34,129.75h6.6v1.56h-8.32v-13.8h1.72Z"/><path class="cls-4" d="M277.06,131.31h-1.72v-13.8h1.72Z"/><path class="cls-4" d="M285.38,117.51c3.22,0,4.76,1.22,4.76,3.52a3.13,3.13,0,0,1-2.28,3.08,3.06,3.06,0,0,1,2.72,3.24c0,2-1.22,4-4.76,4h-4.66v-13.8Zm-2.5,5.86h2.8c1.94,0,2.74-1,2.74-2.34s-.62-2-3-2h-2.5Zm0,6.38h2.94c2.08,0,3-.9,3-2.4,0-1.66-1.08-2.42-3.36-2.42h-2.62Z"/><path class="cls-4" d="M301.44,131.31l-2.88-5.82H295.3v5.82h-1.72v-13.8H298c3.18,0,5,1.32,5,4a3.51,3.51,0,0,1-2.72,3.68l3.08,6.12ZM298,123.93c2.34,0,3.3-.72,3.3-2.42s-1-2.44-3.3-2.44H295.3v4.86Z"/><path class="cls-4" d="M304.66,131.31l4.8-13.8h1.6l4.8,13.8H314L313,128.15h-5.44l-1.06,3.16Zm3.42-4.72h4.36l-2.18-6.48Z"/><path class="cls-4" d="M326.12,131.31l-2.88-5.82H320v5.82h-1.72v-13.8h4.4c3.18,0,5,1.32,5,4a3.51,3.51,0,0,1-2.72,3.68l3.08,6.12Zm-3.46-7.38c2.34,0,3.3-.72,3.3-2.42s-1-2.44-3.3-2.44H320v4.86Z"/><path class="cls-4" d="M331.28,117.51l3.14,6,3.14-6h2l-4.3,7.88v5.92h-1.72v-5.92l-4.3-7.88Z"/><rect class="cls-3" x="157.82" y="22.89" width="200" height="60"/><path class="cls-4" d="M187.16,60.29V46.48h4.4c3.06,0,5,1.72,5,6.18V54.1c0,4.46-1.94,6.19-5,6.19Zm7.68-6.19V52.66c0-3.42-1.16-4.62-3.28-4.62h-2.68V58.72h2.68C193.68,58.72,194.84,57.52,194.84,54.1Z"/><path class="cls-4" d="M208.08,46.48V48h-6.6v4.32h6v1.56h-6v4.8h6.6v1.57h-8.32V46.48Z"/><path class="cls-4" d="M218.26,49.54A3.66,3.66,0,0,0,215,47.88c-1.6,0-2.68.72-2.68,2.16,0,1.64,1.24,2.2,3.26,2.56,2.66.46,4.28,1.42,4.28,4,0,1.81-1.2,3.87-4.64,3.87a5.58,5.58,0,0,1-4.92-2.27l1.42-1a4,4,0,0,0,3.5,1.69c2.26,0,2.92-1,2.92-2.23s-.66-2.18-3.26-2.58-4.28-1.64-4.28-4c0-2,1.3-3.72,4.46-3.72a4.88,4.88,0,0,1,4.56,2.26Z"/><path class="cls-4" d="M224.92,60.29H223.2V46.48h1.72Z"/><path class="cls-4" d="M238.4,53.34v.8c0,4.46-2,6.31-5.08,6.31s-5-1.85-5-6.31V52.62c0-4.46,1.94-6.3,5-6.3,2.68,0,4.52,1.42,5,4.46H236.6c-.44-2.06-1.52-2.9-3.28-2.9-2.12,0-3.28,1.32-3.28,4.74v1.52c0,3.42,1.16,4.75,3.28,4.75,1.94,0,3.16-1.13,3.34-4h-3.28V53.34Z"/><path class="cls-4" d="M251,46.48V60.29h-1.68l-6-10.45V60.29H241.6V46.48h1.64l6,10.54V46.48Z"/><path class="cls-4" d="M267.54,49.54a3.66,3.66,0,0,0-3.28-1.66c-1.6,0-2.68.72-2.68,2.16,0,1.64,1.24,2.2,3.26,2.56,2.66.46,4.28,1.42,4.28,4,0,1.81-1.2,3.87-4.64,3.87a5.58,5.58,0,0,1-4.92-2.27l1.42-1a4,4,0,0,0,3.5,1.69c2.26,0,2.92-1,2.92-2.23s-.66-2.18-3.26-2.58-4.28-1.64-4.28-4c0-2,1.3-3.72,4.46-3.72a4.88,4.88,0,0,1,4.56,2.26Z"/><path class="cls-4" d="M272.52,46.48l3.14,6,3.14-6h2l-4.3,7.88v5.93H274.8V54.36l-4.3-7.88Z"/><path class="cls-4" d="M290.28,49.54A3.66,3.66,0,0,0,287,47.88c-1.6,0-2.68.72-2.68,2.16,0,1.64,1.24,2.2,3.26,2.56,2.66.46,4.28,1.42,4.28,4,0,1.81-1.2,3.87-4.64,3.87a5.58,5.58,0,0,1-4.92-2.27l1.42-1a4,4,0,0,0,3.5,1.69c2.26,0,2.92-1,2.92-2.23s-.66-2.18-3.26-2.58-4.28-1.64-4.28-4c0-2,1.3-3.72,4.46-3.72a4.88,4.88,0,0,1,4.56,2.26Z"/><path class="cls-4" d="M303.22,46.48V48H299V60.29H297.3V48h-4.2V46.48Z"/><path class="cls-4" d="M313.84,46.48V48h-6.6v4.32h6v1.56h-6v4.8h6.6v1.57h-8.32V46.48Z"/><path class="cls-4" d="M322.66,55.08l4.12-8.6h1.7V60.29h-1.72V50.16L323.4,57.4h-1.54l-3.3-7.18V60.29h-1.72V46.48h1.68Z"/></g></svg>